<svg id="Layer_1" data-name="Layer 1" xmlns="http://www.w3.org/2000/svg" viewBox="0 0 533.65 531.25"><path d="M351.91,45.25,464.77,158.11,486,179.35,383.2,282.15l-48.05,5.59L121.63,501.25,30,409.62,243.52,196.11l3.35-45.82,105-105m0-30A29.88,29.88,0,0,0,330.7,24l-105,105a30,30,0,0,0-8.7,19l-2.54,34.69L8.79,388.41a30,30,0,0,0,0,42.43l91.63,91.63a30,30,0,0,0,42.42,0L349,316.33,386.66,312a30,30,0,0,0,17.75-8.58L507.22,200.56a30,30,0,0,0,0-42.43L486,136.9,373.12,24a29.89,29.89,0,0,0-21.21-8.79Z"/><path d="M352.13,116.41a11.93,11.93,0,0,1,8.48,3.5l51,51a12,12,0,0,1,0,17l-21.42,21.42a12,12,0,0,1-17,0l-51-51a12,12,0,0,1,0-17l21.42-21.42a12,12,0,0,1,8.49-3.5m0-30a41.72,41.72,0,0,0-29.7,12.28L301,120.11a42,42,0,0,0,0,59.4l51,51a42,42,0,0,0,59.4,0l21.42-21.41a42,42,0,0,0,0-59.4l-51-51a41.74,41.74,0,0,0-29.7-12.28Z"/><line x1="241.11" y1="251.64" x2="274.3" y2="284.83" fill="none" stroke="#000" stroke-linecap="round" stroke-miterlimit="10" stroke-width="30"/><line x1="241.11" y1="251.64" x2="274.3" y2="284.83"/><line x1="179.13" y1="315.54" x2="212.33" y2="348.73" fill="none" stroke="#000" stroke-linecap="round" stroke-miterlimit="10" stroke-width="30"/><line x1="179.13" y1="315.54" x2="212.33" y2="348.73"/><line x1="116.2" y1="378.47" x2="149.39" y2="411.66" fill="none" stroke="#000" stroke-linecap="round" stroke-miterlimit="10" stroke-width="30"/><line x1="116.2" y1="378.47" x2="149.39" y2="411.66"/><path d="M469.37,23.38s21.84-19,41,.21-1.21,39.62-1.21,39.62-47.82,3.92-73.59,43.05" fill="none" stroke="#000" stroke-linecap="round" stroke-linejoin="bevel" stroke-width="30"/></svg>