<svg id="Layer_1" data-name="Layer 1" xmlns="http://www.w3.org/2000/svg" viewBox="0 0 214.93 444.18"><path d="M15.23,101.48S5.79,14,109.43,15s89.87,86.47,89.87,86.47l.61,158.35s-34.45,50,0,89.6v42.71s-92.47,83.35-184.9,0V345.26s32.33-33.34,0-82.3Z" fill="none" stroke="#000" stroke-miterlimit="10" stroke-width="30"/><line x1="52.53" y1="324.71" x2="82.22" y2="354.4" fill="none" stroke="#000" stroke-miterlimit="10" stroke-width="30"/><line x1="159.84" y1="324.71" x2="132.23" y2="352.32" fill="none" stroke="#000" stroke-miterlimit="10" stroke-width="30"/><circle cx="107.73" cy="362.75" r="9.33" fill="none" stroke="#000" stroke-miterlimit="10" stroke-width="16"/><rect x="60.45" y="178.36" width="93.76" height="93.76" rx="12" fill="none" stroke="#000" stroke-miterlimit="10" stroke-width="30"/><circle cx="110.57" cy="95.77" r="1.82" fill="none" stroke="#000" stroke-miterlimit="10" stroke-width="30"/><path d="M111.89,63.47l-2.27-12.68s2.24-2.81,5,0Z" fill="none" stroke="#000" stroke-miterlimit="10" stroke-width="18"/><path d="M141.23,78.12l10.54-7.41s3.49.84,2.13,4.57Z" fill="none" stroke="#000" stroke-miterlimit="10" stroke-width="18"/><path d="M138.67,110.88l11.66,5.49s1,3.45-2.92,4.12Z" fill="none" stroke="#000" stroke-miterlimit="10" stroke-width="18"/><path d="M110.79,126.51l2.28,12.69a3.21,3.21,0,0,1-5,0Z" fill="none" stroke="#000" stroke-miterlimit="10" stroke-width="18"/><path d="M84.63,78.32l-11.88-5s-1.13-3.4,2.75-4.23Z" fill="none" stroke="#000" stroke-miterlimit="10" stroke-width="18"/><path d="M84.35,108.39l-10.62,7.3a3.2,3.2,0,0,1-2.08-4.59Z" fill="none" stroke="#000" stroke-miterlimit="10" stroke-width="18"/></svg>