<svg id="Layer_1" data-name="Layer 1" xmlns="http://www.w3.org/2000/svg" viewBox="0 0 224.22 537.09"><path d="M209.68,162H194.77V86.66a82.66,82.66,0,0,0-165.32,0V162H14.54A10.54,10.54,0,0,0,4,172.56v350a10.54,10.54,0,0,0,10.54,10.54H209.68a10.54,10.54,0,0,0,10.54-10.54v-350A10.54,10.54,0,0,0,209.68,162ZM50.53,86.66a61.58,61.58,0,0,1,123.16,0V162H50.53ZM199.14,512H25.08V183.1H199.14Z" stroke="#000" stroke-miterlimit="10" stroke-width="8"/><path d="M112.11,43.24a43.42,43.42,0,1,0,43.42,43.42A43.47,43.47,0,0,0,112.11,43.24Zm0,65.76a22.34,22.34,0,1,1,22.34-22.34A22.36,22.36,0,0,1,112.11,109Z" stroke="#000" stroke-miterlimit="10" stroke-width="8"/><path d="M112.11,310.5a43.42,43.42,0,1,0,43.42,43.42A43.47,43.47,0,0,0,112.11,310.5Zm0,65.76a22.34,22.34,0,1,1,22.34-22.34A22.36,22.36,0,0,1,112.11,376.26Z" stroke="#000" stroke-miterlimit="10" stroke-width="8"/><path d="M165.63,204.45h-107A10.53,10.53,0,0,0,48.06,215V276.5A10.53,10.53,0,0,0,58.59,287h107a10.54,10.54,0,0,0,10.54-10.54V215A10.54,10.54,0,0,0,165.63,204.45ZM155.09,266h-86V225.53h86Z" stroke="#000" stroke-miterlimit="10" stroke-width="8"/><path d="M174.68,478.07H90.9a10.54,10.54,0,0,0,0,21.08h83.78a10.54,10.54,0,0,0,0-21.08Z" stroke="#000" stroke-miterlimit="10" stroke-width="8"/><path d="M57,478.07H49.54a10.54,10.54,0,1,0,0,21.08H57a10.54,10.54,0,1,0,0-21.08Z" stroke="#000" stroke-miterlimit="10" stroke-width="8"/></svg>