<svg id="Layer_1" data-name="Layer 1" xmlns="http://www.w3.org/2000/svg" viewBox="0 0 244.94 444.11"><path d="M122.59,56.35H41.08S15,62.87,15,82.43V184.59s1.09,26.08,42.38,63V380.2H183.45V245.44s40.21-48.9,44.56-57.59,0-117.37,0-117.37-2.18-14.13-27.17-14.13H122.59Z" fill="none" stroke="#000" stroke-miterlimit="10" stroke-width="30"/><line x1="110.63" y1="110.69" x2="176.93" y2="110.69" fill="none" stroke="#000" stroke-miterlimit="10" stroke-width="30"/><line x1="71.51" y1="152.93" x2="176.93" y2="152.93" fill="none" stroke="#000" stroke-miterlimit="10" stroke-width="30"/><path d="M61.73,409.54s0,19.57,19.56,19.57h77.16s20.21.92,23.47-18.36a32.87,32.87,0,0,0,.44-5.55" fill="none" stroke="#000" stroke-miterlimit="10" stroke-width="30"/><ellipse cx="121.25" cy="270.35" rx="20.46" ry="30.52" fill="none" stroke="#000" stroke-miterlimit="10" stroke-width="18"/><polygon points="81.12 18.54 78.17 24.94 83.83 24.94 81.12 18.54" fill="none" stroke="#000" stroke-miterlimit="10" stroke-width="15"/><polygon points="165.13 18.54 162.17 24.94 167.84 24.94 165.13 18.54" fill="none" stroke="#000" stroke-miterlimit="10" stroke-width="15"/></svg>