<svg id="Layer_1" data-name="Layer 1" xmlns="http://www.w3.org/2000/svg" viewBox="0 0 394.74 549.51"><path d="M164.76,30c19.6,0,33.32.93,33.32.93,172.36,0,166.66,45.58,166.66,45.58V213.26l-38.46,38.46V519.51H67.75V251L30,213.26V76.51C30,35.81,115.76,30,164.76,30m0-30c-25.35,0-62,1.53-92.68,8.8C53,13.32,38.22,19.48,26.77,27.64,9.51,39.92,0,57.28,0,76.51V213.26a30,30,0,0,0,8.79,21.21l29,29V519.51a30,30,0,0,0,30,30H326.28a30,30,0,0,0,30-30V264.14L386,234.47a30,30,0,0,0,8.78-21.21V76.51h0c.05-6.77-1.69-19.55-13.16-32.55C356.1,15.1,296.38,1,199,.93,195.28.7,182.23,0,164.76,0Z"/><path d="M195.23,301.76a75.06,75.06,0,1,1-75.07,75.06,75.06,75.06,0,0,1,75.07-75.06m0-30A105.06,105.06,0,1,0,300.29,376.82,105.19,105.19,0,0,0,195.23,271.76Z"/><line x1="195.23" y1="301.76" x2="195.23" y2="451.88" fill="none" stroke="#000" stroke-linecap="round" stroke-linejoin="round" stroke-width="30"/><rect x="64.8" y="67.6" width="263.49" height="151.66" rx="12" fill="none" stroke="#000" stroke-linecap="round" stroke-linejoin="round" stroke-width="30"/><line x1="129.31" y1="143.43" x2="196.26" y2="210.38" fill="none" stroke="#000" stroke-linecap="round" stroke-linejoin="round" stroke-width="30"/><line x1="163.21" y1="117.9" x2="182.94" y2="137.63" fill="none" stroke="#000" stroke-linecap="round" stroke-linejoin="round" stroke-width="30"/><line x1="225.59" y1="105.94" x2="225.59" y2="133.85" fill="none" stroke="#000" stroke-linecap="round" stroke-linejoin="round" stroke-width="30"/><line x1="285.48" y1="117.77" x2="264.38" y2="136.03" fill="none" stroke="#000" stroke-linecap="round" stroke-linejoin="round" stroke-width="30"/></svg>