<svg id="Layer_1" data-name="Layer 1" xmlns="http://www.w3.org/2000/svg" viewBox="0 0 718.68 541.66"><rect x="15" y="15" width="688.68" height="442.72" fill="none" stroke="#000" stroke-linecap="round" stroke-linejoin="round" stroke-width="30"/><rect x="67.94" y="466.91" width="130.21" height="59.74" fill="none" stroke="#000" stroke-linecap="round" stroke-linejoin="round" stroke-width="30"/><rect x="519.85" y="466.91" width="130.21" height="59.74" fill="none" stroke="#000" stroke-linecap="round" stroke-linejoin="round" stroke-width="30"/><rect x="232.47" y="74.53" width="261.96" height="162.38" rx="12" fill="none" stroke="#000" stroke-linecap="round" stroke-linejoin="round" stroke-width="30"/><path d="M239.51,162.06l55.15,24.51s35.24,21.45,49-39.83,42.9-9.61,58.22,9,42.89,21.66,44.42-22.76,39.83-24.51,39.83-24.51" fill="none" stroke="#000" stroke-linecap="round" stroke-linejoin="round" stroke-width="30"/><circle cx="111.79" cy="101.59" r="28.34" fill="none" stroke="#000" stroke-linecap="round" stroke-linejoin="round" stroke-width="30"/><circle cx="111.79" cy="226.64" r="28.34" fill="none" stroke="#000" stroke-linecap="round" stroke-linejoin="round" stroke-width="30"/><circle cx="111.79" cy="351.69" r="28.34" fill="none" stroke="#000" stroke-linecap="round" stroke-linejoin="round" stroke-width="30"/><line x1="568.22" y1="74.53" x2="631.02" y2="74.53" fill="none" stroke="#000" stroke-linecap="round" stroke-linejoin="round" stroke-width="30"/><line x1="568.22" y1="237.85" x2="631.02" y2="237.85" fill="none" stroke="#000" stroke-linecap="round" stroke-linejoin="round" stroke-width="30"/><line x1="568.22" y1="158.19" x2="631.02" y2="158.19" fill="none" stroke="#000" stroke-linecap="round" stroke-linejoin="round" stroke-width="30"/><line x1="259.56" y1="298.4" x2="259.56" y2="407.17" fill="none" stroke="#000" stroke-linecap="round" stroke-linejoin="round" stroke-width="30"/><line x1="382.43" y1="298.4" x2="382.43" y2="407.17" fill="none" stroke="#000" stroke-linecap="round" stroke-linejoin="round" stroke-width="30"/><line x1="233.45" y1="382.94" x2="284.34" y2="382.94" fill="none" stroke="#000" stroke-linecap="round" stroke-linejoin="round" stroke-width="30"/><line x1="356.98" y1="323.35" x2="407.87" y2="323.35" fill="none" stroke="#000" stroke-linecap="round" stroke-linejoin="round" stroke-width="30"/><line x1="498.09" y1="298.4" x2="498.09" y2="407.17" fill="none" stroke="#000" stroke-linecap="round" stroke-linejoin="round" stroke-width="30"/><line x1="471.98" y1="358.94" x2="522.87" y2="358.94" fill="none" stroke="#000" stroke-linecap="round" stroke-linejoin="round" stroke-width="30"/></svg>