<svg id="Layer_1" data-name="Layer 1" xmlns="http://www.w3.org/2000/svg" viewBox="0 0 293.35 510.59"><path d="M64.13,70.13l10.1,148.36,11.52,169s-1,35.37,43.23,34.39,93.34,0,93.34,0,26.53,2.93,32.43-34.41S278.33,70.13,278.33,70.13s3.93-58-107.1-55S62.87,51.62,64.13,70.13Z" fill="none" stroke="#004e7d" stroke-miterlimit="10" stroke-width="30"/><path d="M74,303S49.39,327.57,15,307.92v-67.8L74,191" fill="none" stroke="#004e7d" stroke-miterlimit="10" stroke-width="30"/><polyline points="115.23 423.8 132.91 459.24 203.66 459.24 216.43 424.92" fill="none" stroke="#004e7d" stroke-miterlimit="10" stroke-width="30"/><path d="M132.91,462.18s-48.15,33.41-37.34,33.41H243.94c16.71,0-40.28-33.41-40.28-33.41" fill="none" stroke="#004e7d" stroke-miterlimit="10" stroke-width="30"/><rect x="112.29" y="63.26" width="116.92" height="162.13" rx="12" fill="none" stroke="#004e7d" stroke-miterlimit="10" stroke-width="30"/><rect x="118.17" y="263.95" width="4.05" height="4.05" fill="none" stroke="#004e7d" stroke-miterlimit="10" stroke-width="19"/><rect x="166.75" y="264.13" width="4.05" height="4.05" fill="none" stroke="#004e7d" stroke-miterlimit="10" stroke-width="19"/><rect x="217.84" y="264.13" width="4.05" height="4.05" fill="none" stroke="#004e7d" stroke-miterlimit="10" stroke-width="19"/><ellipse cx="171.51" cy="340.83" rx="53.33" ry="32.92" fill="none" stroke="#004e7d" stroke-miterlimit="10" stroke-width="30"/></svg>