<svg id="Layer_1" data-name="Layer 1" xmlns="http://www.w3.org/2000/svg" viewBox="0 0 286.55 511.02"><path d="M156.59,16s-33.67-3.87-45.91,3.54S64.77,61.19,62.14,73.12,60,174.35,60,174.35L15.79,235S11,245.36,25,250.8s29.74,13.5,38.92,14.14L76.13,455.47s1.32,25.79,25.37,35.46,102.75,2.58,102.75,2.58,24.93.65,26.68-36.1,21.86-262.11,18.8-269.2l11.37-9-9.66-6.47L246.67,77S251,63.47,200.32,21.56l-34.11-4.19" fill="none" stroke="#004e7d" stroke-miterlimit="10" stroke-width="30"/><path d="M246.89,225.57c-1.3,25.27,1.13,45.94-24.14,44.64a45.82,45.82,0,1,1,4.7-91.52C252.72,180,248.19,200.3,246.89,225.57Z" fill="none" stroke="#004e7d" stroke-miterlimit="10" stroke-width="30"/><polyline points="60.12 92.21 86.57 163.85 220.03 163.85 248.05 81.37" fill="none" stroke="#004e7d" stroke-miterlimit="10" stroke-width="30"/><rect x="117.74" y="328.21" width="72.43" height="119.91" rx="12" fill="none" stroke="#004e7d" stroke-miterlimit="10" stroke-width="30"/></svg>