<svg id="Layer_1" data-name="Layer 1" xmlns="http://www.w3.org/2000/svg" viewBox="0 0 390.15 441.09"><path d="M361.65,8.56s5.89-1.13,13.57,6.34,6.34,13.58,6.34,13.58" fill="none" stroke="#000" stroke-linecap="round" stroke-linejoin="round" stroke-width="17"/><rect x="272.02" y="46.94" width="97.94" height="48.64" rx="12" transform="translate(43.63 247.85) rotate(-45)" fill="none" stroke="#000" stroke-linecap="round" stroke-linejoin="round" stroke-width="30"/><line x1="271.03" y1="136.96" x2="276.49" y2="131.5" fill="none" stroke="#000" stroke-linecap="round" stroke-linejoin="round" stroke-width="17"/><rect x="156.31" y="149.5" width="107.1" height="73.88" transform="translate(-70.37 203) rotate(-45)" fill="none" stroke="#000" stroke-linecap="round" stroke-linejoin="round" stroke-width="30"/><polyline points="140.16 173.79 122.75 156.38 152.15 126.99 169.55 144.39" fill="none" stroke="#000" stroke-linejoin="round" stroke-width="30"/><line x1="256.47" y1="121.77" x2="261.92" y2="116.31" fill="none" stroke="#000" stroke-linecap="round" stroke-linejoin="round" stroke-width="17"/><path d="M249.74,234.85s83.35,59,7,146-150.57,21.87-150.57,21.87L15,322.68l27.7-31.56,63.74,55.15S154,384,195.2,343.5s19-81,19-81" fill="none" stroke="#000" stroke-linejoin="round" stroke-width="30"/><line x1="220.93" y1="174.79" x2="197.03" y2="198.69" fill="none" stroke="#000" stroke-linecap="round" stroke-linejoin="round" stroke-width="30"/></svg>