<svg id="Layer_1" data-name="Layer 1" xmlns="http://www.w3.org/2000/svg" viewBox="0 0 654.49 550.85"><rect x="204.43" y="15" width="435.06" height="520.85" rx="12" fill="none" stroke="#000" stroke-miterlimit="10" stroke-width="30"/><rect x="274.89" y="77.81" width="288" height="174.64" rx="12" fill="none" stroke="#000" stroke-miterlimit="10" stroke-width="30"/><rect x="274.89" y="336.7" width="80" height="117.96" rx="12" fill="none" stroke="#000" stroke-miterlimit="10" stroke-width="30"/><path d="M175.51,62.49a12,12,0,0,1,12,12V186.83a12,12,0,0,1-12,12H151.26a12,12,0,0,1-12-12V74.49a12,12,0,0,1,12-12h24.25m0-30H151.26a42,42,0,0,0-42,42V186.83a42,42,0,0,0,42,42h24.25a42,42,0,0,0,42-42V74.49a42,42,0,0,0-42-42Z"/><polygon points="120.7 92.85 15 105.11 15 148 120.7 161.79 120.7 92.85" fill="none" stroke="#000" stroke-linecap="round" stroke-linejoin="round" stroke-width="30"/><path d="M456,414.53a16.92,16.92,0,1,1,16.91-16.91A16.94,16.94,0,0,1,456,414.53Z"/><path d="M456,395.7a1.92,1.92,0,1,1-1.92,1.92A1.91,1.91,0,0,1,456,395.7m0-30a31.92,31.92,0,1,0,31.91,31.92A32,32,0,0,0,456,365.7Z"/><path d="M545.28,362a16.92,16.92,0,1,1,16.91-16.91A16.94,16.94,0,0,1,545.28,362Z"/><path d="M545.28,343.21a1.92,1.92,0,1,1-1.92,1.92,1.92,1.92,0,0,1,1.92-1.92m0-30a31.92,31.92,0,1,0,31.91,31.92,32,32,0,0,0-31.91-31.92Z"/><path d="M547.19,471.57a16.92,16.92,0,1,1,16.92-16.91A16.92,16.92,0,0,1,547.19,471.57Z"/><path d="M547.19,452.74a1.92,1.92,0,1,1-1.91,1.92,1.92,1.92,0,0,1,1.91-1.92m0-30a31.92,31.92,0,1,0,31.92,31.92,31.95,31.95,0,0,0-31.92-31.92Z"/></svg>