<svg id="Layer_1" data-name="Layer 1" xmlns="http://www.w3.org/2000/svg" viewBox="0 0 628.5 543"><polygon points="167.5 15 384.5 15 401.5 64 144.5 64 167.5 15" fill="none" stroke="#000" stroke-linecap="round" stroke-linejoin="round" stroke-width="30"/><line x1="175.5" y1="57" x2="175.5" y2="113" fill="none" stroke="#000" stroke-miterlimit="10" stroke-width="30"/><line x1="376.5" y1="57" x2="376.5" y2="113" fill="none" stroke="#000" stroke-miterlimit="10" stroke-width="30"/><path d="M528.5,250V167s2-49-54-49h-330S15,126,15,247.5,129.5,392,144.5,392h332s52,4,52-39S528.5,250,528.5,250Z" fill="none" stroke="#000" stroke-miterlimit="10" stroke-width="30"/><path d="M97.5,174c-49.9,53.44-51.79,105.82,1,157" fill="none" stroke="#000" stroke-linecap="round" stroke-miterlimit="10" stroke-width="30"/><line x1="144.5" y1="169" x2="401.5" y2="169" fill="none" stroke="#000" stroke-linecap="round" stroke-miterlimit="10" stroke-width="30"/><line x1="144.5" y1="225" x2="401.5" y2="225" fill="none" stroke="#000" stroke-linecap="round" stroke-miterlimit="10" stroke-width="30"/><line x1="143.25" y1="285" x2="400.25" y2="285" fill="none" stroke="#000" stroke-linecap="round" stroke-miterlimit="10" stroke-width="30"/><line x1="144.5" y1="337" x2="401.5" y2="337" fill="none" stroke="#000" stroke-linecap="round" stroke-miterlimit="10" stroke-width="30"/><line x1="473.5" y1="129" x2="473.5" y2="345" fill="none" stroke="#000" stroke-linecap="round" stroke-miterlimit="10" stroke-width="30"/><rect x="533.5" y="219" width="80" height="73" rx="12" fill="none" stroke="#000" stroke-linecap="round" stroke-miterlimit="10" stroke-width="30"/><line x1="154.5" y1="402" x2="154.5" y2="480" fill="none" stroke="#000" stroke-miterlimit="10" stroke-width="30"/><line x1="401.5" y1="402" x2="401.5" y2="480" fill="none" stroke="#000" stroke-miterlimit="10" stroke-width="30"/><rect x="89.5" y="476" width="392" height="52" rx="12" fill="none" stroke="#000" stroke-miterlimit="10" stroke-width="30"/></svg>