<svg id="Layer_1" data-name="Layer 1" xmlns="http://www.w3.org/2000/svg" viewBox="0 0 306.14 52"><path d="M486.72,420.09c5.46,0,9.33.86,11.57,1.85v4.55a27.59,27.59,0,0,0-11.62-2.34c-4,0-6.38.83-7.44,1.9a5.91,5.91,0,0,0,0,7.64c1.06,1.07,3.46,1.9,7.44,1.9a29.2,29.2,0,0,0,11.62-2.16v4.37c-2.24,1-6.11,1.85-11.57,1.85-6.5,0-10-1.51-11.78-3.23a10.17,10.17,0,0,1,0-13.1C476.68,421.6,480.22,420.09,486.72,420.09Z" transform="translate(-423.91 -403.92)" fill="#114b86"/><path d="M502.11,429.87a8.75,8.75,0,0,1,2.44-6.5c1.77-1.77,5-3.28,12.72-3.28s10.94,1.51,12.71,3.28a9.85,9.85,0,0,1,0,13c-1.77,1.77-5,3.28-12.71,3.28s-10.95-1.51-12.72-3.28A8.77,8.77,0,0,1,502.11,429.87Zm25,0a5.09,5.09,0,0,0-1.38-3.87c-1.07-1.07-3.3-2-8.5-2s-7.44.91-8.5,2a6.12,6.12,0,0,0,0,7.74c1.06,1.07,3.3,2,8.5,2s7.43-.91,8.5-2A5.09,5.09,0,0,0,527.15,429.87Zm-9.91-14.35,4.06,2.55h4.31V418l-5.33-4.5h-5.92l-5.44,4.5v.11h4.27Z" transform="translate(-423.91 -403.92)" fill="#114b86"/><path d="M560.35,434.84V420.77h5V439h-7.59l-15.34-14.33V439h-5v-18.2h7.85Z" transform="translate(-423.91 -403.92)" fill="#114b86"/><path d="M577,426a6.22,6.22,0,0,0-.11,7.67c1.14,1.14,3.59,2,8.27,2,3.82,0,6.71-.39,7.88-1.56a2.63,2.63,0,0,0,.62-2H582.45v-3.64h16v2.42c0,2.91-.63,4.6-1.82,5.8-2.19,2.18-5.72,3-11.47,3-7.18,0-10.61-1.43-12.38-3.23a10,10,0,0,1,0-13.1c1.74-1.74,5.25-3.23,12.61-3.23a37.89,37.89,0,0,1,11.68,1.51V426a32.8,32.8,0,0,0-11.78-1.82C580.5,424.15,578,425,577,426Z" transform="translate(-423.91 -403.92)" fill="#114b86"/><path d="M616.46,420.09c5.46,0,9.33.86,11.57,1.85v4.55a27.59,27.59,0,0,0-11.62-2.34c-4,0-6.37.83-7.44,1.9a5.88,5.88,0,0,0,0,7.64c1.07,1.07,3.46,1.9,7.44,1.9A29.2,29.2,0,0,0,628,433.43v4.37c-2.24,1-6.11,1.85-11.57,1.85-6.5,0-10-1.51-11.78-3.23a10.17,10.17,0,0,1,0-13.1C606.42,421.6,610,420.09,616.46,420.09Z" transform="translate(-423.91 -403.92)" fill="#114b86"/><path d="M635.12,436.47a6.87,6.87,0,0,1-2-5.35V420.77h5.17v9.41a4.5,4.5,0,0,0,1.2,3.51c1,1.07,3.2,1.8,7.17,1.8s6.14-.73,7.18-1.8a4.53,4.53,0,0,0,1.2-3.51v-9.41h5.17v10.35a6.83,6.83,0,0,1-2,5.35c-1.82,1.82-5.12,3.07-11.52,3.07S637,438.29,635.12,436.47Z" transform="translate(-423.91 -403.92)" fill="#114b86"/><path d="M668.79,431.4h-4.52v-3.17h4.52v-7.46H682.6c6.53,0,9,1.09,10.92,3a9.16,9.16,0,0,1,0,12.12c-1.95,1.95-4.39,3-10.92,3H668.79Zm5.18-3.17h10.3v3.17H674v3.46h8.63c4.19,0,5.7-.57,6.79-1.66a4.43,4.43,0,0,0,1.14-3.33,4.5,4.5,0,0,0-1.14-3.33c-1.09-1.09-2.6-1.66-6.79-1.66H674Z" transform="translate(-423.91 -403.92)" fill="#114b86"/><path d="M702.18,423.37c1.77-1.77,5-3.28,12.71-3.28s11,1.51,12.72,3.28a9.88,9.88,0,0,1,0,13c-1.77,1.77-5,3.28-12.72,3.28s-10.94-1.51-12.71-3.28a9.85,9.85,0,0,1,0-13ZM723.39,426c-1.06-1.07-3.3-2-8.5-2s-7.43.91-8.5,2a6.12,6.12,0,0,0,0,7.74c1.07,1.07,3.3,2,8.5,2s7.44-.91,8.5-2a6.12,6.12,0,0,0,0-7.74Z" transform="translate(-423.91 -403.92)" fill="#114b86"/><path d="M474.69,450.77a2,2,0,0,1-.82-.77,2.26,2.26,0,0,1-.29-1.15v-2.07a2.26,2.26,0,0,1,.29-1.15,2,2,0,0,1,.82-.76,2.71,2.71,0,0,1,1.23-.27,2.74,2.74,0,0,1,1.22.25,2,2,0,0,1,.82.73,2,2,0,0,1,.3,1.1c0,.05,0,.08-.11.1l-1.06.06h0c-.06,0-.09,0-.09-.1a1,1,0,0,0-.3-.77,1.2,1.2,0,0,0-1.54,0,1,1,0,0,0-.3.77v2.17a1,1,0,0,0,.3.75,1.17,1.17,0,0,0,1.54,0,1,1,0,0,0,.3-.75c0-.07,0-.1.1-.1l1.06,0a.09.09,0,0,1,.07,0,.07.07,0,0,1,0,.06,2,2,0,0,1-.3,1.1,1.85,1.85,0,0,1-.82.74,2.74,2.74,0,0,1-1.22.26A2.71,2.71,0,0,1,474.69,450.77Z" transform="translate(-423.91 -403.92)" fill="#d51f39"/><path d="M487.71,444.7a.11.11,0,0,1,.08,0h1a.13.13,0,0,1,.08,0,.11.11,0,0,1,0,.08v6.08a.11.11,0,0,1,0,.08.13.13,0,0,1-.08,0h-1a.1.1,0,0,1-.11-.11v-2.48a0,0,0,0,0-.05-.05h-2s0,0,0,.05v2.48a.1.1,0,0,1-.11.11h-1.05a.1.1,0,0,1-.11-.11v-6.08a.1.1,0,0,1,.11-.11h1.05a.1.1,0,0,1,.11.11v2.42s0,0,0,0h2s.05,0,.05,0v-2.42A.11.11,0,0,1,487.71,444.7Z" transform="translate(-423.91 -403.92)" fill="#d51f39"/><path d="M496.2,450.77a2,2,0,0,1-.82-.76,2.12,2.12,0,0,1-.3-1.13v-4.1a.12.12,0,0,1,0-.08.09.09,0,0,1,.07,0h1.06a.09.09,0,0,1,.07,0,.11.11,0,0,1,0,.08v4.11a1,1,0,0,0,1.07,1.06,1,1,0,0,0,1.06-1.06v-4.11a.1.1,0,0,1,.11-.11h1.05a.13.13,0,0,1,.08,0,.11.11,0,0,1,0,.08v4.1a2.12,2.12,0,0,1-.3,1.13,1.92,1.92,0,0,1-.81.76,2.67,2.67,0,0,1-1.22.27A2.61,2.61,0,0,1,496.2,450.77Z" transform="translate(-423.91 -403.92)" fill="#d51f39"/><path d="M509.66,450.88l-.27-.88a.05.05,0,0,0-.05,0h-2.21a.05.05,0,0,0-.05,0l-.26.88a.11.11,0,0,1-.11.09h-1.15a.11.11,0,0,1-.08,0s0-.05,0-.1l1.95-6.08a.1.1,0,0,1,.11-.09H509c.06,0,.09,0,.11.09l1.95,6.08s0,0,0,.05,0,.08-.1.08h-1.15A.1.1,0,0,1,509.66,450.88Zm-2.84-6.77s0-.06,0-.1l.66-.94a.13.13,0,0,1,.12-.07h1.2a.15.15,0,0,1,.13.07l.68.94a.13.13,0,0,1,0,.07s0,.07-.1.07h-.81a.16.16,0,0,1-.13-.07l-.36-.55s0,0-.05,0l-.36.55a.16.16,0,0,1-.13.07h-.81A.09.09,0,0,1,506.82,444.11Zm.62,4.87H509s0,0,0-.05l-.81-2.68s0,0,0,0l0,0-.79,2.68S507.41,449,507.44,449Zm2-6a2.39,2.39,0,0,1,.13-.24,1.46,1.46,0,0,1,.16-.21.66.66,0,0,0,.14-.17.5.5,0,0,0,0-.19.18.18,0,0,0-.07-.15.28.28,0,0,0-.18-.06.33.33,0,0,0-.2.05,1.15,1.15,0,0,0-.2.22.14.14,0,0,1-.09.05.11.11,0,0,1-.08,0l-.3-.22a.1.1,0,0,1-.05-.08.12.12,0,0,1,0-.07,1.22,1.22,0,0,1,.41-.41,1.06,1.06,0,0,1,.53-.13.9.9,0,0,1,.64.23.73.73,0,0,1,.25.6.63.63,0,0,1-.09.35,1.54,1.54,0,0,1-.25.31,1.71,1.71,0,0,0-.24.29c0,.06-.08.09-.13.07l-.35-.07C509.4,443.14,509.38,443.09,509.41,443Z" transform="translate(-423.91 -403.92)" fill="#d51f39"/><path d="M520.6,444.7a.13.13,0,0,1,.08,0h1.05a.1.1,0,0,1,.11.11v6.08a.1.1,0,0,1-.11.11h-1a.14.14,0,0,1-.13-.07l-2.33-3.85s0,0,0,0,0,0,0,0v3.8a.11.11,0,0,1,0,.08.09.09,0,0,1-.07,0h-1.06a.09.09,0,0,1-.07,0,.11.11,0,0,1,0-.08v-6.08a.11.11,0,0,1,0-.08.09.09,0,0,1,.07,0h1a.14.14,0,0,1,.13.07l2.32,3.84,0,0s0,0,0,0v-3.78A.11.11,0,0,1,520.6,444.7Z" transform="translate(-423.91 -403.92)" fill="#d51f39"/><path d="M534.77,450.93s0-.05,0-.09l1.74-3a.06.06,0,0,0,0-.06l-1.74-3,0-.06c0-.05,0-.07.1-.07H536a.14.14,0,0,1,.13.07l1.17,2.06s0,0,.06,0l1.17-2.06a.14.14,0,0,1,.13-.07h1.14a.1.1,0,0,1,.09,0s0,.05,0,.09l-1.75,3v.06l1.75,3,0,.06c0,.05,0,.07-.1.07h-1.14a.14.14,0,0,1-.13-.07l-1.17-2s0,0-.06,0l-1.18,2a.14.14,0,0,1-.13.07h-1.13C534.81,451,534.78,451,534.77,450.93Z" transform="translate(-423.91 -403.92)" fill="#d51f39"/><path d="M549.75,450.88l-.27-.88s0,0,0,0h-2.22s0,0,0,0l-.26.88a.12.12,0,0,1-.12.09h-1.14s-.07,0-.08,0a.08.08,0,0,1,0-.1l1.94-6.08a.12.12,0,0,1,.12-.09H549a.12.12,0,0,1,.12.09l1.94,6.08a.09.09,0,0,1,0,.05c0,.05,0,.08-.1.08h-1.14A.12.12,0,0,1,549.75,450.88Zm-2.21-1.9h1.58s0,0,0-.05l-.81-2.68,0,0,0,0-.79,2.68S547.51,449,547.54,449Zm.2-4.9a.1.1,0,0,1,0-.09l.48-.91a.13.13,0,0,1,.14-.08h.91s.07,0,.08,0,0,0,0,.09l-.64.91a.14.14,0,0,1-.13.07h-.75C547.77,444.11,547.75,444.1,547.74,444.08Z" transform="translate(-423.91 -403.92)" fill="#d51f39"/><path d="M557.84,450.77A2,2,0,0,1,557,450a2.26,2.26,0,0,1-.29-1.15v-2.07a2.26,2.26,0,0,1,.29-1.15,2,2,0,0,1,.82-.76,2.71,2.71,0,0,1,1.23-.27,2.74,2.74,0,0,1,1.22.25,2,2,0,0,1,.82.73,2,2,0,0,1,.3,1.1c0,.05,0,.08-.11.1l-1.06.06h0c-.06,0-.09,0-.09-.1a1,1,0,0,0-.3-.77,1.2,1.2,0,0,0-1.54,0,1,1,0,0,0-.3.77v2.17a1,1,0,0,0,.3.75,1.17,1.17,0,0,0,1.54,0,1,1,0,0,0,.3-.75c0-.07,0-.1.1-.1l1.06,0a.09.09,0,0,1,.07,0s0,0,0,.06a2,2,0,0,1-.3,1.1,1.85,1.85,0,0,1-.82.74,2.74,2.74,0,0,1-1.22.26A2.71,2.71,0,0,1,557.84,450.77Z" transform="translate(-423.91 -403.92)" fill="#d51f39"/><path d="M578.43,444.91a1.83,1.83,0,0,1,.8.67,1.85,1.85,0,0,1,.27,1v2.48a1.85,1.85,0,0,1-.27,1,1.83,1.83,0,0,1-.8.67,2.73,2.73,0,0,1-1.18.24H575a.1.1,0,0,1-.11-.11V448.2a0,0,0,0,0,0-.05h-.3a.1.1,0,0,1-.11-.11v-.64a.1.1,0,0,1,.11-.11h.3a0,0,0,0,0,0-.05v-2.46a.1.1,0,0,1,.11-.11h2.25A2.73,2.73,0,0,1,578.43,444.91Zm-.19,1.87A1,1,0,0,0,578,446a.88.88,0,0,0-.69-.28H576.2s0,0,0,0v1.44s0,.05,0,.05h.72a.1.1,0,0,1,.11.11V448a.1.1,0,0,1-.11.11h-.72s0,0,0,.05v1.64s0,0,0,0h1.1a.85.85,0,0,0,.67-.28,1.21,1.21,0,0,0,.27-.75Z" transform="translate(-423.91 -403.92)" fill="#d51f39"/><path d="M589.94,445.73a.11.11,0,0,1-.08,0h-3s0,0,0,0v1.4s0,0,0,0h1.94a.08.08,0,0,1,.07,0,.09.09,0,0,1,0,.07v.87a.11.11,0,0,1,0,.08.09.09,0,0,1-.07,0h-1.94s0,0,0,.05v1.46s0,0,0,0h3a.1.1,0,0,1,.11.11v.87a.1.1,0,0,1-.11.11h-4.15a.1.1,0,0,1-.08,0,.11.11,0,0,1,0-.08v-6.08a.11.11,0,0,1,0-.08.1.1,0,0,1,.08,0h4.15a.1.1,0,0,1,.11.11v.87A.11.11,0,0,1,589.94,445.73Zm-3.59-1.62s0-.06,0-.1l.66-.94a.13.13,0,0,1,.12-.07h1.2a.14.14,0,0,1,.13.07l.68.94a.13.13,0,0,1,0,.07s0,.07-.1.07h-.81a.17.17,0,0,1-.13-.07l-.36-.55s0,0,0,0l-.36.55a.16.16,0,0,1-.13.07h-.81A.09.09,0,0,1,586.35,444.11Zm2.77-.71s0,0,0-.09l.48-.91a.15.15,0,0,1,.14-.08h.91s.07,0,.08,0,0,.06,0,.1l-.64.9a.14.14,0,0,1-.13.08h-.75A.09.09,0,0,1,589.12,443.4Z" transform="translate(-423.91 -403.92)" fill="#d51f39"/><path d="M599.65,444.7a.11.11,0,0,1,.08,0h1a.1.1,0,0,1,.11.11v6.08a.1.1,0,0,1-.11.11h-1a.11.11,0,0,1-.12-.07l-2.33-3.85,0,0a.05.05,0,0,0,0,0l0,3.8a.1.1,0,0,1-.11.11h-1a.1.1,0,0,1-.11-.11v-6.08a.1.1,0,0,1,.11-.11h1a.11.11,0,0,1,.12.07l2.32,3.84,0,0s0,0,0,0v-3.78A.11.11,0,0,1,599.65,444.7Z" transform="translate(-423.91 -403.92)" fill="#d51f39"/><path d="M618.51,444.7a.11.11,0,0,1,0,.08v.88a.11.11,0,0,1,0,.08.13.13,0,0,1-.08,0h-1.61s-.05,0-.05,0v5.05a.11.11,0,0,1,0,.08.09.09,0,0,1-.07,0h-1.06a.12.12,0,0,1-.11-.11v-5.05s0,0,0,0h-1.57a.09.09,0,0,1-.07,0,.11.11,0,0,1,0-.08v-.88a.11.11,0,0,1,0-.08.09.09,0,0,1,.07,0h4.54A.13.13,0,0,1,618.51,444.7Z" transform="translate(-423.91 -403.92)" fill="#d51f39"/><path d="M630.19,444a1.33,1.33,0,0,1-.32.85,1.48,1.48,0,0,1-.72.41,0,0,0,0,0,0,0v3.59a2.21,2.21,0,0,1-.29,1.13,2,2,0,0,1-.82.76,2.89,2.89,0,0,1-2.44,0,2,2,0,0,1-.82-.76,2.21,2.21,0,0,1-.29-1.13v-4.1a.1.1,0,0,1,.11-.11h1.05a.1.1,0,0,1,.11.11v4.11a1,1,0,0,0,.29.77,1.17,1.17,0,0,0,1.54,0,1,1,0,0,0,.29-.77v-4.11a.1.1,0,0,1,.11-.11h.72a1,1,0,0,0,.49-.14.7.7,0,0,0,.26-.54c0-.07,0-.1.11-.1h.55C630.16,443.89,630.19,443.92,630.19,444Zm-2.93.05s0,.07-.09.07h-.76a.13.13,0,0,1-.12-.07l-.64-.91a.07.07,0,0,1,0-.06c0-.05,0-.07.09-.07h.91a.13.13,0,0,1,.13.08l.48.91A.17.17,0,0,1,627.26,444Z" transform="translate(-423.91 -403.92)" fill="#d51f39"/><path d="M639,444.7a.11.11,0,0,1,.08,0h1.05a.1.1,0,0,1,.11.11v6.08a.1.1,0,0,1-.11.11h-1a.13.13,0,0,1-.13-.07l-2.33-3.85a.05.05,0,0,0,0,0,.05.05,0,0,0,0,0l0,3.8a.11.11,0,0,1,0,.08.1.1,0,0,1-.08,0h-1.05a.13.13,0,0,1-.08,0,.11.11,0,0,1,0-.08v-6.08a.11.11,0,0,1,0-.08.13.13,0,0,1,.08,0h1a.11.11,0,0,1,.12.07l2.33,3.84,0,0s0,0,0,0v-3.78A.11.11,0,0,1,639,444.7Z" transform="translate(-423.91 -403.92)" fill="#d51f39"/><path d="M647.43,450.76a2,2,0,0,1-.83-.78,2.26,2.26,0,0,1-.29-1.15v-2a2.32,2.32,0,0,1,.29-1.16,2,2,0,0,1,.83-.78,2.64,2.64,0,0,1,1.22-.27,2.6,2.6,0,0,1,1.21.27,2,2,0,0,1,.82.73,1.84,1.84,0,0,1,.29,1v.06a.1.1,0,0,1-.11.11h-1.05a.12.12,0,0,1-.11-.11v0a.94.94,0,0,0-.28-.7,1.18,1.18,0,0,0-1.55,0,1.1,1.1,0,0,0-.29.79v2.08a1,1,0,0,0,.31.79,1.13,1.13,0,0,0,.81.3,1.08,1.08,0,0,0,.74-.24.88.88,0,0,0,.28-.69v-.41s0,0,0,0h-1a.11.11,0,0,1-.08,0,.13.13,0,0,1,0-.08v-.83a.13.13,0,0,1,0-.08.11.11,0,0,1,.08,0h2.19a.11.11,0,0,1,.08,0,.13.13,0,0,1,0,.08v1.19a2.31,2.31,0,0,1-.29,1.19,1.94,1.94,0,0,1-.81.77,2.77,2.77,0,0,1-1.22.26A2.53,2.53,0,0,1,647.43,450.76Z" transform="translate(-423.91 -403.92)" fill="#d51f39"/><path d="M668.22,444.67h1a.13.13,0,0,1,.08,0,.11.11,0,0,1,0,.08v6.08a.11.11,0,0,1,0,.08.13.13,0,0,1-.08,0h-1a.1.1,0,0,1-.11-.11v-4s0,0,0,0l0,0-.95,1.5a.14.14,0,0,1-.13.07h-.53a.13.13,0,0,1-.12-.07l-1-1.5,0,0s0,0,0,0v4a.1.1,0,0,1-.11.11h-1.05a.1.1,0,0,1-.11-.11v-6.08a.1.1,0,0,1,.11-.11h1.05a.15.15,0,0,1,.13.07l1.35,2.1s0,0,.05,0l1.36-2.1A.14.14,0,0,1,668.22,444.67Z" transform="translate(-423.91 -403.92)" fill="#d51f39"/><path d="M675.65,450.94a.11.11,0,0,1,0-.08v-6.08a.11.11,0,0,1,0-.08.13.13,0,0,1,.08,0h1a.1.1,0,0,1,.11.11v6.08a.1.1,0,0,1-.11.11h-1A.13.13,0,0,1,675.65,450.94Z" transform="translate(-423.91 -403.92)" fill="#d51f39"/><path d="M683.17,450.94a.11.11,0,0,1,0-.08v-6.08a.1.1,0,0,1,.11-.11h1a.1.1,0,0,1,.11.11v5.06s0,0,0,0h2.95a.09.09,0,0,1,.07,0,.11.11,0,0,1,0,.08v.87a.11.11,0,0,1,0,.08.09.09,0,0,1-.07,0h-4.15A.11.11,0,0,1,683.17,450.94Z" transform="translate(-423.91 -403.92)" fill="#d51f39"/><path d="M693.46,450.94a.11.11,0,0,1,0-.08v-6.08a.11.11,0,0,1,0-.08.13.13,0,0,1,.08,0h1.05a.1.1,0,0,1,.11.11v6.08a.1.1,0,0,1-.11.11h-1.05A.13.13,0,0,1,693.46,450.94Z" transform="translate(-423.91 -403.92)" fill="#d51f39"/><path d="M705.12,444.67h1.06a.12.12,0,0,1,.11.11v6.08a.12.12,0,0,1-.11.11h-1.06a.11.11,0,0,1-.07,0,.11.11,0,0,1,0-.08v-4s0,0,0,0l0,0-1,1.5a.14.14,0,0,1-.13.07h-.53a.13.13,0,0,1-.12-.07l-1-1.5,0,0s0,0,0,0v4a.1.1,0,0,1-.11.11h-1.05a.1.1,0,0,1-.11-.11v-6.08a.1.1,0,0,1,.11-.11h1.05a.15.15,0,0,1,.13.07l1.35,2.1s0,0,0,0l1.36-2.1A.13.13,0,0,1,705.12,444.67Z" transform="translate(-423.91 -403.92)" fill="#d51f39"/><path d="M716.87,445.73a.09.09,0,0,1-.07,0h-2.95s-.05,0-.05,0v1.4s0,0,.05,0h1.93a.12.12,0,0,1,.11.11v.87a.1.1,0,0,1-.11.11h-1.93a0,0,0,0,0-.05.05v1.46s0,0,.05,0h2.95a.09.09,0,0,1,.07,0,.12.12,0,0,1,0,.08v.87a.12.12,0,0,1,0,.08.09.09,0,0,1-.07,0h-4.16a.1.1,0,0,1-.11-.11v-6.08a.1.1,0,0,1,.11-.11h4.16a.09.09,0,0,1,.07,0,.12.12,0,0,1,0,.08v.87A.12.12,0,0,1,716.87,445.73Z" transform="translate(-423.91 -403.92)" fill="#d51f39"/><path d="M727.36,444.7a.11.11,0,0,1,0,.08v.88a.1.1,0,0,1-.11.11h-1.61s0,0,0,0v5.05a.11.11,0,0,1,0,.08.13.13,0,0,1-.08,0h-1a.1.1,0,0,1-.11-.11v-5.05s0,0-.05,0h-1.56a.1.1,0,0,1-.11-.11v-.88a.1.1,0,0,1,.11-.11h4.53A.11.11,0,0,1,727.36,444.7Z" transform="translate(-423.91 -403.92)" fill="#d51f39"/><text transform="translate(217.32 22.1)" font-size="26" fill="#114b86" font-family="Idlewild-Bold, Idlewild" font-weight="700">.</text><path d="M465.34,434.09a20.72,20.72,0,0,1-40.79,5.12,21,21,0,0,1-.64-5.12,20.72,20.72,0,0,1,41.43,0Z" transform="translate(-423.91 -403.92)" fill="#d51f3a"/><path d="M445.53,426.86a30.93,30.93,0,0,0-14.75,22.92,20,20,0,0,1-6.23-10.36S436.74,426.19,445.53,426.86Z" transform="translate(-423.91 -403.92)" fill="#fff"/><path d="M437.85,423.45h20.42s-20.72,13.48-10.21,32.12c0,0-7.53,1.4-11.49-1.41,0,0-3.59-19.19,14.93-28.45Z" transform="translate(-423.91 -403.92)" fill="#fff"/></svg>