<svg id="Layer_1" data-name="Layer 1" xmlns="http://www.w3.org/2000/svg" viewBox="0 0 306.94 41.54"><path d="M63.61,6.71c5.46,0,9.33.86,11.57,1.85v4.55a27.64,27.64,0,0,0-11.63-2.34c-4,0-6.37.83-7.43,1.9a4.86,4.86,0,0,0-1.41,3.82,4.89,4.89,0,0,0,1.41,3.82c1.06,1.07,3.46,1.9,7.43,1.9a29.26,29.26,0,0,0,11.63-2.16v4.37c-2.24,1-6.11,1.84-11.57,1.84-6.5,0-10-1.5-11.78-3.22a8.9,8.9,0,0,1-2.39-6.55,8.86,8.86,0,0,1,2.39-6.55C53.57,8.22,57.11,6.71,63.61,6.71Z" fill="#114b86"/><path d="M79,16.49A8.75,8.75,0,0,1,81.44,10c1.77-1.77,5-3.28,12.72-3.28S105.1,8.22,106.87,10a8.72,8.72,0,0,1,2.45,6.5,8.73,8.73,0,0,1-2.45,6.5c-1.77,1.77-5,3.27-12.71,3.27s-11-1.5-12.72-3.27A8.77,8.77,0,0,1,79,16.49Zm25,0a5.12,5.12,0,0,0-1.38-3.88c-1.07-1.06-3.3-2-8.5-2s-7.44.91-8.51,2a5.12,5.12,0,0,0-1.37,3.88,5.09,5.09,0,0,0,1.37,3.87c1.07,1.07,3.31,2,8.51,2s7.43-.91,8.5-2A5.09,5.09,0,0,0,104,16.49ZM94.13,2.14l4.06,2.54h4.31v-.1L97.17.08H91.25l-5.44,4.5v.1h4.26Z" fill="#114b86"/><path d="M137.24,21.45V7.39h5v18.2h-7.59L119.32,11.26V25.59h-5V7.39h7.85Z" fill="#114b86"/><path d="M153.9,12.61a5.26,5.26,0,0,0-1.37,3.88,5.17,5.17,0,0,0,1.27,3.79c1.14,1.15,3.59,2,8.27,2,3.82,0,6.71-.39,7.88-1.56a2.64,2.64,0,0,0,.62-2H159.34V15.06h16v2.42c0,2.91-.62,4.6-1.82,5.79-2.18,2.19-5.72,3-11.46,3-7.18,0-10.61-1.43-12.38-3.22a8.83,8.83,0,0,1-2.44-6.55,8.83,8.83,0,0,1,2.44-6.55c1.74-1.75,5.25-3.23,12.61-3.23A37.94,37.94,0,0,1,174,8.22v4.37a32.8,32.8,0,0,0-11.78-1.82C157.39,10.77,154.92,11.6,153.9,12.61Z" fill="#114b86"/><path d="M193.35,6.71c5.46,0,9.33.86,11.57,1.85v4.55a27.64,27.64,0,0,0-11.63-2.34c-4,0-6.37.83-7.43,1.9a4.86,4.86,0,0,0-1.41,3.82,4.89,4.89,0,0,0,1.41,3.82c1.06,1.07,3.46,1.9,7.43,1.9a29.26,29.26,0,0,0,11.63-2.16v4.37c-2.24,1-6.11,1.84-11.57,1.84-6.5,0-10-1.5-11.78-3.22a8.9,8.9,0,0,1-2.39-6.55,8.86,8.86,0,0,1,2.39-6.55C183.31,8.22,186.85,6.71,193.35,6.71Z" fill="#114b86"/><path d="M212,23.09a6.87,6.87,0,0,1-2-5.35V7.39h5.17V16.8a4.5,4.5,0,0,0,1.2,3.51c1,1.07,3.19,1.79,7.17,1.79s6.14-.72,7.18-1.79a4.53,4.53,0,0,0,1.19-3.51V7.39h5.18V17.74a6.87,6.87,0,0,1-2,5.35c-1.82,1.82-5.12,3.07-11.52,3.07S213.83,24.91,212,23.09Z" fill="#114b86"/><path d="M245.68,18h-4.52V14.85h4.52V7.39h13.81c6.53,0,9,1.09,10.92,3a8.46,8.46,0,0,1,2.29,6.06,8.47,8.47,0,0,1-2.29,6.06c-2,1.95-4.39,3-10.92,3H245.68Zm5.18-3.17h10.29V18H250.86v3.46h8.63c4.19,0,5.7-.57,6.79-1.66a4.47,4.47,0,0,0,1.14-3.33,4.5,4.5,0,0,0-1.14-3.33c-1.09-1.09-2.6-1.66-6.79-1.66h-8.63Z" fill="#114b86"/><path d="M279.07,10c1.77-1.77,5-3.28,12.71-3.28s11,1.51,12.72,3.28a8.75,8.75,0,0,1,2.44,6.5A8.77,8.77,0,0,1,304.5,23c-1.77,1.77-5,3.27-12.72,3.27s-10.94-1.5-12.71-3.27a8.73,8.73,0,0,1-2.45-6.5A8.72,8.72,0,0,1,279.07,10Zm21.21,2.62c-1.06-1.06-3.3-2-8.5-2s-7.43.91-8.5,2a5.12,5.12,0,0,0-1.38,3.88,5.09,5.09,0,0,0,1.38,3.87c1.07,1.07,3.3,2,8.5,2s7.44-.91,8.5-2a5.09,5.09,0,0,0,1.38-3.87A5.12,5.12,0,0,0,300.28,12.61Z" fill="#114b86"/><path d="M51.58,37.39a2,2,0,0,1-.82-.77,2.26,2.26,0,0,1-.29-1.15V33.39a2.25,2.25,0,0,1,.29-1.14,2,2,0,0,1,.82-.76,2.68,2.68,0,0,1,1.23-.27,2.74,2.74,0,0,1,1.22.25,1.94,1.94,0,0,1,.82.73,2,2,0,0,1,.29,1.1c0,.05,0,.08-.1.09L54,33.46h0c-.06,0-.09,0-.09-.1a1,1,0,0,0-.3-.77,1.2,1.2,0,0,0-1.54,0,1,1,0,0,0-.3.77v2.17a1,1,0,0,0,.3.75,1.17,1.17,0,0,0,1.54,0,1,1,0,0,0,.3-.75c0-.07,0-.1.1-.1l1.06,0a.09.09,0,0,1,.07,0,.09.09,0,0,1,0,.06,2,2,0,0,1-.29,1.1,1.9,1.9,0,0,1-.82.74,2.74,2.74,0,0,1-1.22.26A2.68,2.68,0,0,1,51.58,37.39Z" fill="#d51f39"/><path d="M64.6,31.32a.11.11,0,0,1,.08,0h1a.12.12,0,0,1,.11.11v6.08a.12.12,0,0,1-.11.11h-1a.1.1,0,0,1-.11-.11V35a0,0,0,0,0,0,0h-2s0,0,0,0v2.48a.1.1,0,0,1-.11.11H61.33a.1.1,0,0,1-.11-.11V31.4a.1.1,0,0,1,.11-.11h1.05a.1.1,0,0,1,.11.11v2.42s0,0,0,0h2s0,0,0,0V31.4A.11.11,0,0,1,64.6,31.32Z" fill="#d51f39"/><path d="M73.09,37.39a1.89,1.89,0,0,1-.82-.76A2.12,2.12,0,0,1,72,35.5V31.4a.12.12,0,0,1,.11-.11h1.06a.11.11,0,0,1,.07,0,.11.11,0,0,1,0,.08v4.11a1,1,0,0,0,.3.77,1.15,1.15,0,0,0,1.53,0,1,1,0,0,0,.3-.77V31.4a.1.1,0,0,1,.11-.11h1a.12.12,0,0,1,.11.11v4.1a2.12,2.12,0,0,1-.3,1.13,1.89,1.89,0,0,1-.82.76,2.87,2.87,0,0,1-2.43,0Z" fill="#d51f39"/><path d="M86.55,37.5l-.27-.88s0,0,0,0H84a.05.05,0,0,0,0,0l-.26.88a.12.12,0,0,1-.12.09H82.45a.1.1,0,0,1-.08,0,.11.11,0,0,1,0-.1l2-6.08a.1.1,0,0,1,.11-.09h1.41a.12.12,0,0,1,.12.09l2,6.08v0c0,.05,0,.08-.09.08H86.66A.1.1,0,0,1,86.55,37.5Zm-2.84-6.77s0-.06,0-.1l.66-.94a.14.14,0,0,1,.12-.08h1.2a.16.16,0,0,1,.13.08l.68.94a.15.15,0,0,1,0,.06s0,.08-.1.08h-.81a.14.14,0,0,1-.13-.08l-.36-.54s0,0,0,0l-.36.54a.14.14,0,0,1-.13.08h-.81A.09.09,0,0,1,83.71,30.73Zm.62,4.87h1.59s0,0,0-.05l-.81-2.68a0,0,0,0,0,0,0s0,0,0,0l-.79,2.68S84.3,35.6,84.33,35.6Zm2-6,.13-.25a1.27,1.27,0,0,1,.16-.2.66.66,0,0,0,.14-.17.5.5,0,0,0,0-.19.18.18,0,0,0-.07-.15.3.3,0,0,0-.18-.06.33.33,0,0,0-.2.05,1.53,1.53,0,0,0-.21.22.15.15,0,0,1-.08.05.1.1,0,0,1-.08,0l-.3-.22a.1.1,0,0,1,0-.08.19.19,0,0,1,0-.08,1.45,1.45,0,0,1,.41-.41,1.07,1.07,0,0,1,.53-.12.94.94,0,0,1,.64.22.76.76,0,0,1,.25.61.65.65,0,0,1-.09.35,2.61,2.61,0,0,1-.25.31,1.71,1.71,0,0,0-.24.29c0,.06-.08.09-.13.07l-.36-.07A.09.09,0,0,1,86.3,29.64Z" fill="#d51f39"/><path d="M97.49,31.32a.13.13,0,0,1,.08,0h1.05a.1.1,0,0,1,.11.11v6.08a.1.1,0,0,1-.11.11h-1a.14.14,0,0,1-.13-.07l-2.33-3.86,0,0s0,0,0,0v3.8a.11.11,0,0,1,0,.08.09.09,0,0,1-.07,0H94a.12.12,0,0,1-.11-.11V31.4a.12.12,0,0,1,.11-.11h1a.14.14,0,0,1,.13.07l2.32,3.83s0,0,0,0,0,0,0,0V31.4A.11.11,0,0,1,97.49,31.32Z" fill="#d51f39"/><path d="M111.66,37.55s0,0,0-.09l1.75-3a.06.06,0,0,0,0-.06l-1.75-3v-.05c0-.05,0-.07.1-.07h1.14a.14.14,0,0,1,.13.07l1.17,2.06s0,0,.06,0l1.17-2.06a.14.14,0,0,1,.13-.07h1.14a.12.12,0,0,1,.09,0,.1.1,0,0,1,0,.09l-1.75,3v.06l1.75,3,0,.06s0,.07-.1.07h-1.14a.16.16,0,0,1-.13-.07l-1.17-2.06s0,0-.06,0L113,37.52a.16.16,0,0,1-.13.07h-1.13S111.67,37.58,111.66,37.55Z" fill="#d51f39"/><path d="M126.64,37.5l-.27-.88s0,0,0,0h-2.22s0,0,0,0l-.26.88a.12.12,0,0,1-.12.09h-1.14a.12.12,0,0,1-.09,0,.11.11,0,0,1,0-.1l1.94-6.08a.12.12,0,0,1,.12-.09h1.41a.12.12,0,0,1,.12.09L128,37.46a.07.07,0,0,1,0,0c0,.05,0,.08-.1.08h-1.14A.12.12,0,0,1,126.64,37.5Zm-2.21-1.9H126s0,0,0-.05l-.81-2.68s0,0,0,0,0,0,0,0l-.79,2.68S124.4,35.6,124.43,35.6Zm.19-4.91s0-.05,0-.09l.48-.9a.13.13,0,0,1,.14-.09h.9a.1.1,0,0,1,.09,0s0,.06,0,.1l-.64.91a.14.14,0,0,1-.13.07h-.75S124.64,30.72,124.62,30.69Z" fill="#d51f39"/><path d="M134.73,37.39a2,2,0,0,1-.82-.77,2.26,2.26,0,0,1-.29-1.15V33.39a2.25,2.25,0,0,1,.29-1.14,2,2,0,0,1,.82-.76,2.68,2.68,0,0,1,1.23-.27,2.74,2.74,0,0,1,1.22.25,1.94,1.94,0,0,1,.82.73,2,2,0,0,1,.29,1.1c0,.05,0,.08-.1.09l-1.06.07h0c-.06,0-.09,0-.09-.1a1,1,0,0,0-.3-.77,1.2,1.2,0,0,0-1.54,0,1,1,0,0,0-.3.77v2.17a1,1,0,0,0,.3.75,1.17,1.17,0,0,0,1.54,0,1,1,0,0,0,.3-.75c0-.07,0-.1.1-.1l1.06,0a.09.09,0,0,1,.07,0,.09.09,0,0,1,0,.06,2,2,0,0,1-.29,1.1,1.9,1.9,0,0,1-.82.74,2.74,2.74,0,0,1-1.22.26A2.68,2.68,0,0,1,134.73,37.39Z" fill="#d51f39"/><path d="M155.32,31.53a1.75,1.75,0,0,1,.79.67,1.77,1.77,0,0,1,.28,1v2.48a1.77,1.77,0,0,1-.28,1,1.75,1.75,0,0,1-.79.67,2.73,2.73,0,0,1-1.18.24h-2.25a.1.1,0,0,1-.08,0,.11.11,0,0,1,0-.08V34.82a0,0,0,0,0-.05,0h-.3a.1.1,0,0,1-.11-.11V34a.1.1,0,0,1,.11-.11h.3a0,0,0,0,0,.05,0V31.4a.11.11,0,0,1,0-.08.1.1,0,0,1,.08,0h2.25A2.73,2.73,0,0,1,155.32,31.53Zm-.19,1.87a1,1,0,0,0-.26-.74.88.88,0,0,0-.69-.28h-1.09s0,0,0,0v1.44s0,0,0,0h.72a.1.1,0,0,1,.11.11v.64a.1.1,0,0,1-.11.11h-.72s0,0,0,0v1.63s0,0,0,0h1.1a.81.81,0,0,0,.66-.28,1.18,1.18,0,0,0,.28-.75Z" fill="#d51f39"/><path d="M166.83,32.35a.11.11,0,0,1-.08,0H163.8s0,0,0,0v1.4s0,0,0,0h1.93a.1.1,0,0,1,.08,0,.11.11,0,0,1,0,.08v.87a.11.11,0,0,1,0,.08.1.1,0,0,1-.08,0H163.8s0,0,0,0v1.45s0,0,0,0h2.95a.1.1,0,0,1,.11.11v.87a.1.1,0,0,1-.11.11h-4.16a.09.09,0,0,1-.07,0,.11.11,0,0,1,0-.08V31.4a.11.11,0,0,1,0-.08.09.09,0,0,1,.07,0h4.16a.1.1,0,0,1,.11.11v.87A.13.13,0,0,1,166.83,32.35Zm-3.59-1.62s0-.06,0-.1l.66-.94a.14.14,0,0,1,.12-.08h1.2a.16.16,0,0,1,.13.08l.68.94a.15.15,0,0,1,0,.06s0,.08-.1.08h-.81a.14.14,0,0,1-.13-.08l-.36-.54s0,0,0,0l-.36.54a.14.14,0,0,1-.13.08h-.81A.09.09,0,0,1,163.24,30.73ZM166,30s0-.05,0-.09l.48-.91a.15.15,0,0,1,.14-.08h.9c.05,0,.07,0,.09,0a.08.08,0,0,1,0,.09L167,30a.14.14,0,0,1-.13.08h-.75A.08.08,0,0,1,166,30Z" fill="#d51f39"/><path d="M176.54,31.32a.11.11,0,0,1,.08,0h1a.1.1,0,0,1,.11.11v6.08a.1.1,0,0,1-.11.11h-1a.13.13,0,0,1-.12-.07l-2.34-3.86,0,0s0,0,0,0l0,3.8a.1.1,0,0,1-.11.11H173a.1.1,0,0,1-.11-.11V31.4a.1.1,0,0,1,.11-.11h1a.11.11,0,0,1,.12.07l2.32,3.83,0,0a.05.05,0,0,0,0,0V31.4A.11.11,0,0,1,176.54,31.32Z" fill="#d51f39"/><path d="M195.39,31.32a.09.09,0,0,1,0,.08v.88a.15.15,0,0,1-.11.11h-1.61s-.05,0-.05,0v5a.1.1,0,0,1-.11.11H192.5a.12.12,0,0,1-.11-.11v-5s0,0,0,0h-1.57a.08.08,0,0,1-.07,0,.1.1,0,0,1,0-.07V31.4a.12.12,0,0,1,0-.08.09.09,0,0,1,.07,0h4.54A.09.09,0,0,1,195.39,31.32Z" fill="#d51f39"/><path d="M207.08,30.61a1.33,1.33,0,0,1-.32.85,1.43,1.43,0,0,1-.72.4.05.05,0,0,0,0,.05V35.5a2.21,2.21,0,0,1-.29,1.13,2,2,0,0,1-.82.76,2.89,2.89,0,0,1-2.44,0,2,2,0,0,1-.82-.76,2.21,2.21,0,0,1-.29-1.13V31.4a.1.1,0,0,1,.11-.11h1.05a.1.1,0,0,1,.11.11v4.11a1,1,0,0,0,.29.77,1.06,1.06,0,0,0,1.83-.77V31.4a.1.1,0,0,1,.11-.11h.72a.91.91,0,0,0,.49-.15.66.66,0,0,0,.26-.53c0-.07,0-.1.1-.1H207C207,30.51,207.08,30.54,207.08,30.61Zm-2.93.05c0,.05,0,.07-.09.07h-.76a.15.15,0,0,1-.13-.07l-.63-.91a.07.07,0,0,1,0-.06c0-.05,0-.08.09-.08h.91a.14.14,0,0,1,.13.09l.48.9A.39.39,0,0,1,204.15,30.66Z" fill="#d51f39"/><path d="M215.84,31.32a.11.11,0,0,1,.08,0H217a.1.1,0,0,1,.11.11v6.08a.1.1,0,0,1-.11.11h-1a.13.13,0,0,1-.12-.07l-2.33-3.86,0,0s0,0,0,0l0,3.8a.1.1,0,0,1-.11.11h-1a.13.13,0,0,1-.08,0,.11.11,0,0,1,0-.08V31.4a.11.11,0,0,1,0-.08.13.13,0,0,1,.08,0h1a.11.11,0,0,1,.12.07l2.33,3.83s0,0,0,0a.05.05,0,0,0,0,0V31.4A.11.11,0,0,1,215.84,31.32Z" fill="#d51f39"/><path d="M224.32,37.38a2,2,0,0,1-.83-.78,2.28,2.28,0,0,1-.29-1.15v-2a2.32,2.32,0,0,1,.29-1.16,2,2,0,0,1,.83-.78,2.64,2.64,0,0,1,1.22-.27,2.6,2.6,0,0,1,1.21.27,2.08,2.08,0,0,1,.82.73,1.93,1.93,0,0,1,.29,1v.06a.1.1,0,0,1-.11.11H226.7a.1.1,0,0,1-.11-.11v0a.94.94,0,0,0-.28-.7,1.18,1.18,0,0,0-1.55,0,1.09,1.09,0,0,0-.29.78v2.09a1,1,0,0,0,.31.79,1.12,1.12,0,0,0,.8.3,1,1,0,0,0,.75-.25.84.84,0,0,0,.28-.68v-.41s0,0,0,0h-1a.12.12,0,0,1-.08,0,.09.09,0,0,1,0-.07v-.83a.1.1,0,0,1,.11-.11h2.19a.1.1,0,0,1,.11.11v1.19a2.31,2.31,0,0,1-.29,1.19,1.86,1.86,0,0,1-.81.76,2.64,2.64,0,0,1-1.22.27A2.53,2.53,0,0,1,224.32,37.38Z" fill="#d51f39"/><path d="M245.1,31.29h1.06a.12.12,0,0,1,.11.11v6.08a.12.12,0,0,1-.11.11H245.1a.11.11,0,0,1-.07,0,.11.11,0,0,1,0-.08v-4s0,0,0,0l0,0L244,35a.16.16,0,0,1-.13.07h-.53a.15.15,0,0,1-.12-.07l-1-1.5s0,0,0,0,0,0,0,0v4a.1.1,0,0,1-.11.11H241a.1.1,0,0,1-.11-.11V31.4a.1.1,0,0,1,.11-.11h1.05a.15.15,0,0,1,.13.07l1.35,2.1s0,0,.05,0l1.36-2.1A.13.13,0,0,1,245.1,31.29Z" fill="#d51f39"/><path d="M252.54,37.56a.11.11,0,0,1,0-.08V31.4a.1.1,0,0,1,.11-.11h1a.1.1,0,0,1,.11.11v6.08a.1.1,0,0,1-.11.11h-1A.11.11,0,0,1,252.54,37.56Z" fill="#d51f39"/><path d="M260.06,37.56a.11.11,0,0,1,0-.08V31.4a.1.1,0,0,1,.11-.11h1.05a.13.13,0,0,1,.08,0,.11.11,0,0,1,0,.08v5.05s0,0,0,0h2.94a.1.1,0,0,1,.11.11v.87a.1.1,0,0,1-.11.11h-4.14A.11.11,0,0,1,260.06,37.56Z" fill="#d51f39"/><path d="M270.35,37.56a.11.11,0,0,1,0-.08V31.4a.11.11,0,0,1,0-.08.13.13,0,0,1,.08,0h1.05a.1.1,0,0,1,.11.11v6.08a.1.1,0,0,1-.11.11h-1.05A.13.13,0,0,1,270.35,37.56Z" fill="#d51f39"/><path d="M282,31.29h1.06a.09.09,0,0,1,.07,0,.12.12,0,0,1,0,.08v6.08a.12.12,0,0,1,0,.08.09.09,0,0,1-.07,0H282a.09.09,0,0,1-.07,0,.11.11,0,0,1,0-.08v-4s0,0,0,0a0,0,0,0,0,0,0l-1,1.5a.16.16,0,0,1-.13.07h-.53a.14.14,0,0,1-.12-.07l-1-1.5s0,0,0,0,0,0,0,0v4a.1.1,0,0,1-.11.11H278a.1.1,0,0,1-.11-.11V31.4a.1.1,0,0,1,.11-.11H279a.15.15,0,0,1,.13.07l1.35,2.1s0,0,0,0l1.36-2.1A.13.13,0,0,1,282,31.29Z" fill="#d51f39"/><path d="M293.76,32.35a.09.09,0,0,1-.07,0h-3s0,0,0,0v1.4s0,0,0,0h1.94a.1.1,0,0,1,.11.11v.87a.1.1,0,0,1-.11.11h-1.94s0,0,0,0v1.45s0,0,0,0h3a.09.09,0,0,1,.07,0,.11.11,0,0,1,0,.08v.87a.11.11,0,0,1,0,.08.09.09,0,0,1-.07,0h-4.16a.1.1,0,0,1-.11-.11V31.4a.1.1,0,0,1,.11-.11h4.16a.09.09,0,0,1,.07,0,.11.11,0,0,1,0,.08v.87A.13.13,0,0,1,293.76,32.35Z" fill="#d51f39"/><path d="M304.25,31.32a.11.11,0,0,1,0,.08v.88a.12.12,0,0,1-.11.11h-1.61s0,0,0,0v5a.12.12,0,0,1-.11.11h-1.06a.09.09,0,0,1-.07,0,.11.11,0,0,1,0-.08v-5s0,0-.05,0h-1.56a.12.12,0,0,1-.11-.11V31.4a.1.1,0,0,1,.11-.11h4.53A.11.11,0,0,1,304.25,31.32Z" fill="#d51f39"/><path d="M220.57,12.63v-5h5.64v5Z" fill="#114b86"/><circle cx="20.77" cy="20.77" r="20.77" fill="#fff"/><path d="M12.87,1.56h0A17.21,17.21,0,0,1,28.64,16.69l0,.08c-.1.36-.21.71-.34,1.05a17.06,17.06,0,0,1-9.07,1.93l-.23,0A17.11,17.11,0,0,1,4.07,8.27,17.31,17.31,0,0,1,12.87,1.56Zm6.79,40A17.59,17.59,0,0,1,7.77,36.92a19.32,19.32,0,0,0,5.05.68A19.06,19.06,0,0,0,26,32.28a18.9,18.9,0,0,0,4.1-5.69l.29-.3A17.56,17.56,0,0,1,19.69,41.54ZM1.8,12.61a17.16,17.16,0,0,0,14.67,11h.23a16.54,16.54,0,0,0,7.72-1.44l-.24.48a15.78,15.78,0,0,1-8,4.1A15.46,15.46,0,0,1,0,19.15,17.47,17.47,0,0,1,1.8,12.61Zm11.88,18a14.47,14.47,0,0,0,4-1,15.66,15.66,0,0,0,4.82-3.18,17.37,17.37,0,0,1-1.13,1.86c-4,5.85-10.62,8-16.81,5.53a21.1,21.1,0,0,1-4-8.34A15.87,15.87,0,0,0,13.68,30.58ZM25.47,41a22.42,22.42,0,0,0,9.76-18.57A22.57,22.57,0,0,0,17.15.32,20.48,20.48,0,0,1,20.77,0a20.76,20.76,0,0,1,4.7,41Zm0,0a22.42,22.42,0,0,0,9.76-18.57A22.57,22.57,0,0,0,17.15.32,20.48,20.48,0,0,1,20.77,0a20.76,20.76,0,0,1,4.7,41Z" fill="#d51f3a"/><path d="M25.47,41a22.42,22.42,0,0,0,9.76-18.57A22.57,22.57,0,0,0,17.15.32C18.32.11,36.76,1,37.85,20.67,38.41,30.71,31.24,38.93,25.47,41Z" fill="#d51f3a"/><path d="M41.54,20.77A20.78,20.78,0,0,0,28.64,1.56a22.57,22.57,0,0,1,9.67,30.31A20.64,20.64,0,0,0,41.54,20.77Z" fill="#d51f3a"/></svg>